<mxfile host="app.diagrams.net" modified="2022-10-03T07:34:19.104Z" agent="5.0 (Windows NT 10.0; Win64; x64) AppleWebKit/537.36 (KHTML, like Gecko) Chrome/104.0.5112.123 Safari/537.36" etag="QvUNJJmUa94ZiIwtONfK" version="20.2.3" type="github">
  <diagram id="u7uKzVABn92p7Dv-BkI1" name="第 1 页">
    <mxGraphModel dx="1389" dy="967" grid="1" gridSize="10" guides="1" tooltips="1" connect="1" arrows="1" fold="1" page="1" pageScale="1" pageWidth="827" pageHeight="1169" math="0" shadow="0">
      <root>
        <mxCell id="0" />
        <mxCell id="1" parent="0" />
        <mxCell id="yrQSbQ5pxmHGBJIbzcOD-3" value="" style="rounded=1;whiteSpace=wrap;html=1;fontSize=15;fontStyle=1;fillColor=#d5e8d4;strokeColor=#82b366;strokeWidth=2;" vertex="1" parent="1">
          <mxGeometry x="150" y="210" width="430" height="220" as="geometry" />
        </mxCell>
        <mxCell id="yrQSbQ5pxmHGBJIbzcOD-8" value="go方法绑定" style="edgeStyle=orthogonalEdgeStyle;rounded=0;orthogonalLoop=1;jettySize=auto;html=1;exitX=0;exitY=0.25;exitDx=0;exitDy=0;entryX=1;entryY=0.25;entryDx=0;entryDy=0;fontSize=15;fontStyle=1;strokeWidth=2;" edge="1" parent="1" source="yrQSbQ5pxmHGBJIbzcOD-1" target="yrQSbQ5pxmHGBJIbzcOD-2">
          <mxGeometry relative="1" as="geometry" />
        </mxCell>
        <mxCell id="yrQSbQ5pxmHGBJIbzcOD-26" value="传入参数&lt;br style=&quot;font-size: 15px;&quot;&gt;启动进程" style="edgeStyle=orthogonalEdgeStyle;rounded=0;orthogonalLoop=1;jettySize=auto;html=1;exitX=0.5;exitY=1;exitDx=0;exitDy=0;fontSize=15;fontStyle=1;strokeWidth=2;" edge="1" parent="1" source="yrQSbQ5pxmHGBJIbzcOD-1" target="yrQSbQ5pxmHGBJIbzcOD-7">
          <mxGeometry x="0.4286" relative="1" as="geometry">
            <Array as="points">
              <mxPoint x="510" y="350" />
            </Array>
            <mxPoint as="offset" />
          </mxGeometry>
        </mxCell>
        <mxCell id="yrQSbQ5pxmHGBJIbzcOD-28" style="edgeStyle=orthogonalEdgeStyle;rounded=0;orthogonalLoop=1;jettySize=auto;html=1;exitX=0.5;exitY=1;exitDx=0;exitDy=0;fontSize=15;strokeWidth=2;" edge="1" parent="1" source="yrQSbQ5pxmHGBJIbzcOD-1">
          <mxGeometry relative="1" as="geometry">
            <mxPoint x="492.8333333333335" y="350.3333333333335" as="targetPoint" />
          </mxGeometry>
        </mxCell>
        <mxCell id="yrQSbQ5pxmHGBJIbzcOD-1" value="后端" style="rounded=1;whiteSpace=wrap;html=1;fontSize=15;fontStyle=1;fillColor=#d5e8d4;strokeColor=#82b366;strokeWidth=2;" vertex="1" parent="1">
          <mxGeometry x="440" y="290" width="106" height="60" as="geometry" />
        </mxCell>
        <mxCell id="yrQSbQ5pxmHGBJIbzcOD-9" value="go RunTime" style="edgeStyle=orthogonalEdgeStyle;rounded=0;orthogonalLoop=1;jettySize=auto;html=1;exitX=1;exitY=0.75;exitDx=0;exitDy=0;entryX=0;entryY=0.75;entryDx=0;entryDy=0;fontSize=15;fontStyle=1;strokeWidth=2;" edge="1" parent="1">
          <mxGeometry relative="1" as="geometry">
            <mxPoint x="320" y="335" as="sourcePoint" />
            <mxPoint x="440" y="335" as="targetPoint" />
          </mxGeometry>
        </mxCell>
        <mxCell id="yrQSbQ5pxmHGBJIbzcOD-19" value="输出统计信息" style="edgeStyle=orthogonalEdgeStyle;rounded=0;orthogonalLoop=1;jettySize=auto;html=1;exitX=0;exitY=0.25;exitDx=0;exitDy=0;entryX=1;entryY=0.25;entryDx=0;entryDy=0;fontSize=15;fontStyle=1;strokeWidth=2;" edge="1" parent="1" source="yrQSbQ5pxmHGBJIbzcOD-2" target="yrQSbQ5pxmHGBJIbzcOD-18">
          <mxGeometry relative="1" as="geometry" />
        </mxCell>
        <mxCell id="yrQSbQ5pxmHGBJIbzcOD-2" value="前端" style="rounded=1;whiteSpace=wrap;html=1;fontSize=15;fontStyle=1;fillColor=#d5e8d4;strokeColor=#82b366;strokeWidth=2;" vertex="1" parent="1">
          <mxGeometry x="200" y="290" width="120" height="60" as="geometry" />
        </mxCell>
        <mxCell id="yrQSbQ5pxmHGBJIbzcOD-4" value="图形化界面" style="text;html=1;strokeColor=none;fillColor=none;align=center;verticalAlign=middle;whiteSpace=wrap;rounded=0;fontSize=20;fontStyle=1;strokeWidth=2;" vertex="1" parent="1">
          <mxGeometry x="315" y="230" width="120" height="30" as="geometry" />
        </mxCell>
        <mxCell id="yrQSbQ5pxmHGBJIbzcOD-23" value="启动测试样例进程" style="edgeStyle=orthogonalEdgeStyle;rounded=0;orthogonalLoop=1;jettySize=auto;html=1;exitX=0;exitY=0.5;exitDx=0;exitDy=0;entryX=1;entryY=0.5;entryDx=0;entryDy=0;fontSize=15;fontStyle=1;strokeWidth=2;" edge="1" parent="1" source="yrQSbQ5pxmHGBJIbzcOD-7" target="yrQSbQ5pxmHGBJIbzcOD-11">
          <mxGeometry x="-0.0929" y="20" relative="1" as="geometry">
            <mxPoint as="offset" />
          </mxGeometry>
        </mxCell>
        <mxCell id="yrQSbQ5pxmHGBJIbzcOD-7" value="注射器" style="rounded=1;whiteSpace=wrap;html=1;fontSize=15;fontStyle=1;fillColor=#f8cecc;strokeColor=#b85450;strokeWidth=2;" vertex="1" parent="1">
          <mxGeometry x="450" y="560" width="120" height="60" as="geometry" />
        </mxCell>
        <mxCell id="yrQSbQ5pxmHGBJIbzcOD-11" value="测试样例&lt;br style=&quot;font-size: 15px;&quot;&gt;" style="rounded=1;whiteSpace=wrap;html=1;fontSize=15;fontStyle=1;strokeWidth=2;fillColor=#ffe6cc;strokeColor=#d79b00;" vertex="1" parent="1">
          <mxGeometry x="140" y="560" width="120" height="60" as="geometry" />
        </mxCell>
        <mxCell id="yrQSbQ5pxmHGBJIbzcOD-24" value="注入" style="edgeStyle=orthogonalEdgeStyle;rounded=0;orthogonalLoop=1;jettySize=auto;html=1;exitX=0.5;exitY=1;exitDx=0;exitDy=0;fontSize=15;fontStyle=1;strokeWidth=2;" edge="1" parent="1" source="yrQSbQ5pxmHGBJIbzcOD-12">
          <mxGeometry relative="1" as="geometry">
            <mxPoint x="363.66666666666697" y="590" as="targetPoint" />
          </mxGeometry>
        </mxCell>
        <mxCell id="yrQSbQ5pxmHGBJIbzcOD-27" value="UDP传输数据" style="edgeStyle=orthogonalEdgeStyle;rounded=0;orthogonalLoop=1;jettySize=auto;html=1;exitX=1;exitY=0.5;exitDx=0;exitDy=0;entryX=0.25;entryY=1;entryDx=0;entryDy=0;fontSize=15;fontStyle=1;strokeWidth=2;" edge="1" parent="1" source="yrQSbQ5pxmHGBJIbzcOD-12" target="yrQSbQ5pxmHGBJIbzcOD-1">
          <mxGeometry x="0.1111" relative="1" as="geometry">
            <mxPoint as="offset" />
          </mxGeometry>
        </mxCell>
        <mxCell id="yrQSbQ5pxmHGBJIbzcOD-29" value="HOOK相关API" style="edgeStyle=orthogonalEdgeStyle;rounded=0;orthogonalLoop=1;jettySize=auto;html=1;exitX=0;exitY=0.5;exitDx=0;exitDy=0;fontSize=15;strokeWidth=2;fontStyle=1" edge="1" parent="1" source="yrQSbQ5pxmHGBJIbzcOD-12" target="yrQSbQ5pxmHGBJIbzcOD-11">
          <mxGeometry x="0.5122" relative="1" as="geometry">
            <mxPoint as="offset" />
          </mxGeometry>
        </mxCell>
        <mxCell id="yrQSbQ5pxmHGBJIbzcOD-12" value="DllMain" style="rounded=1;whiteSpace=wrap;html=1;fontSize=15;fontStyle=1;fillColor=#f8cecc;strokeColor=#b85450;strokeWidth=2;" vertex="1" parent="1">
          <mxGeometry x="304" y="470" width="120" height="60" as="geometry" />
        </mxCell>
        <mxCell id="yrQSbQ5pxmHGBJIbzcOD-20" value="选择测试样例" style="edgeStyle=orthogonalEdgeStyle;rounded=0;orthogonalLoop=1;jettySize=auto;html=1;exitX=1;exitY=0.75;exitDx=0;exitDy=0;entryX=0;entryY=0.75;entryDx=0;entryDy=0;fontSize=15;fontStyle=1;strokeWidth=2;" edge="1" parent="1" source="yrQSbQ5pxmHGBJIbzcOD-18" target="yrQSbQ5pxmHGBJIbzcOD-2">
          <mxGeometry relative="1" as="geometry" />
        </mxCell>
        <mxCell id="yrQSbQ5pxmHGBJIbzcOD-18" value="用户" style="rounded=1;whiteSpace=wrap;html=1;fontSize=15;fontStyle=1;fillColor=#dae8fc;strokeColor=#6c8ebf;strokeWidth=2;" vertex="1" parent="1">
          <mxGeometry x="-70" y="290" width="120" height="60" as="geometry" />
        </mxCell>
        <mxCell id="yrQSbQ5pxmHGBJIbzcOD-22" value="Wails" style="text;html=1;strokeColor=none;fillColor=none;align=center;verticalAlign=middle;whiteSpace=wrap;rounded=0;fontSize=15;fontStyle=1;strokeWidth=2;" vertex="1" parent="1">
          <mxGeometry x="327.5" y="370" width="95" height="30" as="geometry" />
        </mxCell>
      </root>
    </mxGraphModel>
  </diagram>
</mxfile>
